<svg width="164" height="128" viewBox="0 0 164 128" fill="none" xmlns="http://www.w3.org/2000/svg">
<path d="M38.5 2C35.8027 37.85 44.265 47.3726 79.5 43C84.5004 -1.32125 66.8428 0.284463 38.5 2Z" stroke="#474F14"/>
<path d="M38.4644 88.9881C35.7671 53.1381 44.2294 43.6154 79.4644 47.9881C84.4648 92.3093 66.8072 90.7036 38.4644 88.9881Z" stroke="#8D7765"/>
<path d="M84.4644 42.9881C81.7671 7.13809 90.2294 -2.38456 125.464 1.98805C130.465 46.3093 112.807 44.7036 84.4644 42.9881Z" stroke="#474F14"/>
<path d="M84.4644 47.6517C81.7671 83.5017 90.2294 93.0244 125.464 88.6517C130.465 44.3305 112.807 45.9362 84.4644 47.6517Z" stroke="#474F14"/>
<path d="M7.4 106.4C8.38667 106.4 9.28 106.627 10.08 107.08C10.88 107.52 11.5067 108.147 11.96 108.96C12.4133 109.773 12.64 110.7 12.64 111.74C12.64 112.78 12.4133 113.707 11.96 114.52C11.5067 115.333 10.88 115.967 10.08 116.42C9.28 116.873 8.38667 117.1 7.4 117.1C6.52 117.1 5.72667 116.913 5.02 116.54C4.32667 116.167 3.76667 115.627 3.34 114.92V117H1.98V102.16H3.4V108.48C3.84 107.8 4.4 107.287 5.08 106.94C5.77333 106.58 6.54667 106.4 7.4 106.4ZM7.3 115.84C8.03333 115.84 8.7 115.673 9.3 115.34C9.9 114.993 10.3667 114.507 10.7 113.88C11.0467 113.253 11.22 112.54 11.22 111.74C11.22 110.94 11.0467 110.227 10.7 109.6C10.3667 108.973 9.9 108.493 9.3 108.16C8.7 107.813 8.03333 107.64 7.3 107.64C6.55333 107.64 5.88 107.813 5.28 108.16C4.69333 108.493 4.22667 108.973 3.88 109.6C3.54667 110.227 3.38 110.94 3.38 111.74C3.38 112.54 3.54667 113.253 3.88 113.88C4.22667 114.507 4.69333 114.993 5.28 115.34C5.88 115.673 6.55333 115.84 7.3 115.84ZM19.8347 117.1C18.8214 117.1 17.908 116.873 17.0947 116.42C16.2814 115.953 15.6414 115.313 15.1747 114.5C14.708 113.687 14.4747 112.767 14.4747 111.74C14.4747 110.713 14.708 109.793 15.1747 108.98C15.6414 108.167 16.2814 107.533 17.0947 107.08C17.908 106.627 18.8214 106.4 19.8347 106.4C20.848 106.4 21.7614 106.627 22.5747 107.08C23.388 107.533 24.0214 108.167 24.4747 108.98C24.9414 109.793 25.1747 110.713 25.1747 111.74C25.1747 112.767 24.9414 113.687 24.4747 114.5C24.0214 115.313 23.388 115.953 22.5747 116.42C21.7614 116.873 20.848 117.1 19.8347 117.1ZM19.8347 115.84C20.5814 115.84 21.248 115.673 21.8347 115.34C22.4347 114.993 22.9014 114.507 23.2347 113.88C23.568 113.253 23.7347 112.54 23.7347 111.74C23.7347 110.94 23.568 110.227 23.2347 109.6C22.9014 108.973 22.4347 108.493 21.8347 108.16C21.248 107.813 20.5814 107.64 19.8347 107.64C19.088 107.64 18.4147 107.813 17.8147 108.16C17.228 108.493 16.7614 108.973 16.4147 109.6C16.0814 110.227 15.9147 110.94 15.9147 111.74C15.9147 112.54 16.0814 113.253 16.4147 113.88C16.7614 114.507 17.228 114.993 17.8147 115.34C18.4147 115.673 19.088 115.84 19.8347 115.84ZM33.2538 116.36C32.9871 116.6 32.6604 116.787 32.2738 116.92C31.8871 117.04 31.4804 117.1 31.0538 117.1C30.0671 117.1 29.3071 116.833 28.7738 116.3C28.2404 115.767 27.9738 115.013 27.9738 114.04V104.18H29.3938V106.48H32.5738V107.68H29.3938V113.96C29.3938 114.587 29.5471 115.067 29.8538 115.4C30.1604 115.72 30.6071 115.88 31.1938 115.88C31.8338 115.88 32.3538 115.7 32.7538 115.34L33.2538 116.36ZM45.0566 106.48V117H43.6966V114.92C43.2699 115.627 42.7032 116.167 41.9966 116.54C41.3032 116.913 40.5166 117.1 39.6366 117.1C38.6499 117.1 37.7566 116.873 36.9566 116.42C36.1566 115.967 35.5299 115.333 35.0766 114.52C34.6232 113.707 34.3966 112.78 34.3966 111.74C34.3966 110.7 34.6232 109.773 35.0766 108.96C35.5299 108.147 36.1566 107.52 36.9566 107.08C37.7566 106.627 38.6499 106.4 39.6366 106.4C40.4899 106.4 41.2566 106.58 41.9366 106.94C42.6299 107.287 43.1966 107.8 43.6366 108.48V106.48H45.0566ZM39.7566 115.84C40.4899 115.84 41.1499 115.673 41.7366 115.34C42.3366 114.993 42.8032 114.507 43.1366 113.88C43.4832 113.253 43.6566 112.54 43.6566 111.74C43.6566 110.94 43.4832 110.227 43.1366 109.6C42.8032 108.973 42.3366 108.493 41.7366 108.16C41.1499 107.813 40.4899 107.64 39.7566 107.64C39.0099 107.64 38.3366 107.813 37.7366 108.16C37.1499 108.493 36.6832 108.973 36.3366 109.6C36.0032 110.227 35.8366 110.94 35.8366 111.74C35.8366 112.54 36.0032 113.253 36.3366 113.88C36.6832 114.507 37.1499 114.993 37.7366 115.34C38.3366 115.673 39.0099 115.84 39.7566 115.84ZM54.3713 106.4C55.6913 106.4 56.7379 106.787 57.5113 107.56C58.2979 108.32 58.6913 109.433 58.6913 110.9V117H57.2713V111.04C57.2713 109.947 56.9979 109.113 56.4513 108.54C55.9046 107.967 55.1246 107.68 54.1113 107.68C52.9779 107.68 52.0779 108.02 51.4113 108.7C50.7579 109.367 50.4313 110.293 50.4313 111.48V117H49.0113V106.48H50.3713V108.42C50.7579 107.78 51.2913 107.287 51.9713 106.94C52.6646 106.58 53.4646 106.4 54.3713 106.4ZM62.5464 106.48H63.9664V117H62.5464V106.48ZM63.2664 104.18C62.9731 104.18 62.7264 104.08 62.5264 103.88C62.3264 103.68 62.2264 103.44 62.2264 103.16C62.2264 102.893 62.3264 102.66 62.5264 102.46C62.7264 102.26 62.9731 102.16 63.2664 102.16C63.5597 102.16 63.8064 102.26 64.0064 102.46C64.2064 102.647 64.3064 102.873 64.3064 103.14C64.3064 103.433 64.2064 103.68 64.0064 103.88C63.8064 104.08 63.5597 104.18 63.2664 104.18ZM72.2775 117.1C71.2375 117.1 70.3042 116.873 69.4775 116.42C68.6642 115.967 68.0242 115.333 67.5575 114.52C67.0908 113.693 66.8575 112.767 66.8575 111.74C66.8575 110.713 67.0908 109.793 67.5575 108.98C68.0242 108.167 68.6642 107.533 69.4775 107.08C70.3042 106.627 71.2375 106.4 72.2775 106.4C73.1842 106.4 73.9908 106.58 74.6975 106.94C75.4175 107.287 75.9842 107.8 76.3975 108.48L75.3375 109.2C74.9908 108.68 74.5508 108.293 74.0175 108.04C73.4842 107.773 72.9042 107.64 72.2775 107.64C71.5175 107.64 70.8308 107.813 70.2175 108.16C69.6175 108.493 69.1442 108.973 68.7975 109.6C68.4642 110.227 68.2975 110.94 68.2975 111.74C68.2975 112.553 68.4642 113.273 68.7975 113.9C69.1442 114.513 69.6175 114.993 70.2175 115.34C70.8308 115.673 71.5175 115.84 72.2775 115.84C72.9042 115.84 73.4842 115.713 74.0175 115.46C74.5508 115.207 74.9908 114.82 75.3375 114.3L76.3975 115.02C75.9842 115.7 75.4175 116.22 74.6975 116.58C73.9775 116.927 73.1708 117.1 72.2775 117.1Z" fill="#474F14"/>
<path d="M94.1614 106.48V115.72C94.1614 117.507 93.7214 118.827 92.8414 119.68C91.9747 120.547 90.6614 120.98 88.9014 120.98C87.9281 120.98 87.0014 120.833 86.1214 120.54C85.2547 120.26 84.5481 119.867 84.0014 119.36L84.7214 118.28C85.2281 118.733 85.8414 119.087 86.5614 119.34C87.2947 119.593 88.0614 119.72 88.8614 119.72C90.1947 119.72 91.1747 119.407 91.8014 118.78C92.4281 118.167 92.7414 117.207 92.7414 115.9V114.56C92.3014 115.227 91.7214 115.733 91.0014 116.08C90.2947 116.427 89.5081 116.6 88.6414 116.6C87.6547 116.6 86.7547 116.387 85.9414 115.96C85.1414 115.52 84.5081 114.913 84.0414 114.14C83.5881 113.353 83.3614 112.467 83.3614 111.48C83.3614 110.493 83.5881 109.613 84.0414 108.84C84.5081 108.067 85.1414 107.467 85.9414 107.04C86.7414 106.613 87.6414 106.4 88.6414 106.4C89.5347 106.4 90.3414 106.58 91.0614 106.94C91.7814 107.3 92.3614 107.82 92.8014 108.5V106.48H94.1614ZM88.7814 115.34C89.5414 115.34 90.2281 115.18 90.8414 114.86C91.4547 114.527 91.9281 114.067 92.2614 113.48C92.6081 112.893 92.7814 112.227 92.7814 111.48C92.7814 110.733 92.6081 110.073 92.2614 109.5C91.9281 108.913 91.4547 108.46 90.8414 108.14C90.2414 107.807 89.5547 107.64 88.7814 107.64C88.0214 107.64 87.3347 107.8 86.7214 108.12C86.1214 108.44 85.6481 108.893 85.3014 109.48C84.9681 110.067 84.8014 110.733 84.8014 111.48C84.8014 112.227 84.9681 112.893 85.3014 113.48C85.6481 114.067 86.1214 114.527 86.7214 114.86C87.3347 115.18 88.0214 115.34 88.7814 115.34ZM107.732 106.48V117H106.372V114.92C105.946 115.627 105.379 116.167 104.672 116.54C103.979 116.913 103.192 117.1 102.312 117.1C101.326 117.1 100.432 116.873 99.6323 116.42C98.8323 115.967 98.2057 115.333 97.7523 114.52C97.299 113.707 97.0723 112.78 97.0723 111.74C97.0723 110.7 97.299 109.773 97.7523 108.96C98.2057 108.147 98.8323 107.52 99.6323 107.08C100.432 106.627 101.326 106.4 102.312 106.4C103.166 106.4 103.932 106.58 104.612 106.94C105.306 107.287 105.872 107.8 106.312 108.48V106.48H107.732ZM102.432 115.84C103.166 115.84 103.826 115.673 104.412 115.34C105.012 114.993 105.479 114.507 105.812 113.88C106.159 113.253 106.332 112.54 106.332 111.74C106.332 110.94 106.159 110.227 105.812 109.6C105.479 108.973 105.012 108.493 104.412 108.16C103.826 107.813 103.166 107.64 102.432 107.64C101.686 107.64 101.012 107.813 100.412 108.16C99.8257 108.493 99.359 108.973 99.0123 109.6C98.679 110.227 98.5123 110.94 98.5123 111.74C98.5123 112.54 98.679 113.253 99.0123 113.88C99.359 114.507 99.8257 114.993 100.412 115.34C101.012 115.673 101.686 115.84 102.432 115.84ZM113.047 108.54C113.38 107.833 113.874 107.3 114.527 106.94C115.194 106.58 116.014 106.4 116.987 106.4V107.78L116.647 107.76C115.54 107.76 114.674 108.1 114.047 108.78C113.42 109.46 113.107 110.413 113.107 111.64V117H111.687V106.48H113.047V108.54ZM129.06 102.16V117H127.7V114.92C127.274 115.627 126.707 116.167 126 116.54C125.307 116.913 124.52 117.1 123.64 117.1C122.654 117.1 121.76 116.873 120.96 116.42C120.16 115.967 119.534 115.333 119.08 114.52C118.627 113.707 118.4 112.78 118.4 111.74C118.4 110.7 118.627 109.773 119.08 108.96C119.534 108.147 120.16 107.52 120.96 107.08C121.76 106.627 122.654 106.4 123.64 106.4C124.494 106.4 125.26 106.58 125.94 106.94C126.634 107.287 127.2 107.8 127.64 108.48V102.16H129.06ZM123.76 115.84C124.494 115.84 125.154 115.673 125.74 115.34C126.34 114.993 126.807 114.507 127.14 113.88C127.487 113.253 127.66 112.54 127.66 111.74C127.66 110.94 127.487 110.227 127.14 109.6C126.807 108.973 126.34 108.493 125.74 108.16C125.154 107.813 124.494 107.64 123.76 107.64C123.014 107.64 122.34 107.813 121.74 108.16C121.154 108.493 120.687 108.973 120.34 109.6C120.007 110.227 119.84 110.94 119.84 111.74C119.84 112.54 120.007 113.253 120.34 113.88C120.687 114.507 121.154 114.993 121.74 115.34C122.34 115.673 123.014 115.84 123.76 115.84ZM137.515 115.84C138.168 115.84 138.768 115.727 139.315 115.5C139.875 115.26 140.348 114.913 140.735 114.46L141.535 115.38C141.068 115.94 140.488 116.367 139.795 116.66C139.102 116.953 138.335 117.1 137.495 117.1C136.415 117.1 135.455 116.873 134.615 116.42C133.775 115.953 133.122 115.313 132.655 114.5C132.188 113.687 131.955 112.767 131.955 111.74C131.955 110.713 132.175 109.793 132.615 108.98C133.068 108.167 133.688 107.533 134.475 107.08C135.262 106.627 136.155 106.4 137.155 106.4C138.088 106.4 138.928 106.613 139.675 107.04C140.435 107.467 141.035 108.06 141.475 108.82C141.928 109.58 142.168 110.447 142.195 111.42L133.555 113.1C133.822 113.953 134.302 114.627 134.995 115.12C135.702 115.6 136.542 115.84 137.515 115.84ZM137.155 107.62C136.422 107.62 135.762 107.793 135.175 108.14C134.602 108.473 134.148 108.947 133.815 109.56C133.495 110.16 133.335 110.853 133.335 111.64C133.335 111.84 133.342 111.987 133.355 112.08L140.775 110.64C140.615 109.76 140.208 109.04 139.555 108.48C138.902 107.907 138.102 107.62 137.155 107.62ZM150.445 106.4C151.765 106.4 152.812 106.787 153.585 107.56C154.372 108.32 154.765 109.433 154.765 110.9V117H153.345V111.04C153.345 109.947 153.072 109.113 152.525 108.54C151.979 107.967 151.199 107.68 150.185 107.68C149.052 107.68 148.152 108.02 147.485 108.7C146.832 109.367 146.505 110.293 146.505 111.48V117H145.085V106.48H146.445V108.42C146.832 107.78 147.365 107.287 148.045 106.94C148.739 106.58 149.539 106.4 150.445 106.4Z" fill="#8D7765"/>
</svg>
