<svg width="301" height="113" viewBox="0 0 301 113" fill="none" xmlns="http://www.w3.org/2000/svg">
<path d="M109.363 1.50535C107.255 29.3031 113.868 36.6868 141.403 33.2964C145.31 -1.06992 131.512 0.175137 109.363 1.50535Z" stroke="#474F14"/>
<path d="M109.363 69.4946C107.255 41.6969 113.868 34.3132 141.403 37.7036C145.31 72.0699 131.512 70.8249 109.363 69.4946Z" stroke="#8D7765"/>
<path d="M145.285 33.5571C143.268 5.75942 149.594 -1.62435 175.931 1.76613C179.669 36.1324 166.47 34.8874 145.285 33.5571Z" stroke="#474F14"/>
<path d="M145.285 37.4429C143.268 65.2406 149.594 72.6243 175.931 69.2339C179.669 34.8676 166.47 36.1126 145.285 37.4429Z" stroke="#474F14"/>
<path d="M13.32 85.92C15.096 85.92 16.704 86.328 18.144 87.144C19.584 87.936 20.712 89.064 21.528 90.528C22.344 91.992 22.752 93.66 22.752 95.532C22.752 97.404 22.344 99.072 21.528 100.536C20.712 102 19.584 103.14 18.144 103.956C16.704 104.772 15.096 105.18 13.32 105.18C11.736 105.18 10.308 104.844 9.036 104.172C7.788 103.5 6.78 102.528 6.012 101.256V105H3.564V78.288H6.12V89.664C6.912 88.44 7.92 87.516 9.144 86.892C10.392 86.244 11.784 85.92 13.32 85.92ZM13.14 102.912C14.46 102.912 15.66 102.612 16.74 102.012C17.82 101.388 18.66 100.512 19.26 99.384C19.884 98.256 20.196 96.972 20.196 95.532C20.196 94.092 19.884 92.808 19.26 91.68C18.66 90.552 17.82 89.688 16.74 89.088C15.66 88.464 14.46 88.152 13.14 88.152C11.796 88.152 10.584 88.464 9.504 89.088C8.448 89.688 7.608 90.552 6.984 91.68C6.384 92.808 6.084 94.092 6.084 95.532C6.084 96.972 6.384 98.256 6.984 99.384C7.608 100.512 8.448 101.388 9.504 102.012C10.584 102.612 11.796 102.912 13.14 102.912ZM35.7024 105.18C33.8784 105.18 32.2344 104.772 30.7704 103.956C29.3064 103.116 28.1544 101.964 27.3144 100.5C26.4744 99.036 26.0544 97.38 26.0544 95.532C26.0544 93.684 26.4744 92.028 27.3144 90.564C28.1544 89.1 29.3064 87.96 30.7704 87.144C32.2344 86.328 33.8784 85.92 35.7024 85.92C37.5264 85.92 39.1704 86.328 40.6344 87.144C42.0984 87.96 43.2384 89.1 44.0544 90.564C44.8944 92.028 45.3144 93.684 45.3144 95.532C45.3144 97.38 44.8944 99.036 44.0544 100.5C43.2384 101.964 42.0984 103.116 40.6344 103.956C39.1704 104.772 37.5264 105.18 35.7024 105.18ZM35.7024 102.912C37.0464 102.912 38.2464 102.612 39.3024 102.012C40.3824 101.388 41.2224 100.512 41.8224 99.384C42.4224 98.256 42.7224 96.972 42.7224 95.532C42.7224 94.092 42.4224 92.808 41.8224 91.68C41.2224 90.552 40.3824 89.688 39.3024 89.088C38.2464 88.464 37.0464 88.152 35.7024 88.152C34.3584 88.152 33.1464 88.464 32.0664 89.088C31.0104 89.688 30.1704 90.552 29.5464 91.68C28.9464 92.808 28.6464 94.092 28.6464 95.532C28.6464 96.972 28.9464 98.256 29.5464 99.384C30.1704 100.512 31.0104 101.388 32.0664 102.012C33.1464 102.612 34.3584 102.912 35.7024 102.912ZM59.8568 103.848C59.3768 104.28 58.7888 104.616 58.0928 104.856C57.3968 105.072 56.6648 105.18 55.8968 105.18C54.1208 105.18 52.7528 104.7 51.7928 103.74C50.8328 102.78 50.3528 101.424 50.3528 99.672V81.924H52.9088V86.064H58.6328V88.224H52.9088V99.528C52.9088 100.656 53.1848 101.52 53.7368 102.12C54.2888 102.696 55.0928 102.984 56.1488 102.984C57.3008 102.984 58.2368 102.66 58.9568 102.012L59.8568 103.848ZM81.1018 86.064V105H78.6538V101.256C77.8858 102.528 76.8658 103.5 75.5938 104.172C74.3458 104.844 72.9298 105.18 71.3458 105.18C69.5698 105.18 67.9618 104.772 66.5218 103.956C65.0818 103.14 63.9538 102 63.1378 100.536C62.3218 99.072 61.9138 97.404 61.9138 95.532C61.9138 93.66 62.3218 91.992 63.1378 90.528C63.9538 89.064 65.0818 87.936 66.5218 87.144C67.9618 86.328 69.5698 85.92 71.3458 85.92C72.8818 85.92 74.2618 86.244 75.4858 86.892C76.7338 87.516 77.7538 88.44 78.5458 89.664V86.064H81.1018ZM71.5618 102.912C72.8818 102.912 74.0698 102.612 75.1258 102.012C76.2058 101.388 77.0458 100.512 77.6458 99.384C78.2698 98.256 78.5818 96.972 78.5818 95.532C78.5818 94.092 78.2698 92.808 77.6458 91.68C77.0458 90.552 76.2058 89.688 75.1258 89.088C74.0698 88.464 72.8818 88.152 71.5618 88.152C70.2178 88.152 69.0058 88.464 67.9258 89.088C66.8698 89.688 66.0298 90.552 65.4058 91.68C64.8058 92.808 64.5058 94.092 64.5058 95.532C64.5058 96.972 64.8058 98.256 65.4058 99.384C66.0298 100.512 66.8698 101.388 67.9258 102.012C69.0058 102.612 70.2178 102.912 71.5618 102.912ZM97.8683 85.92C100.244 85.92 102.128 86.616 103.52 88.008C104.936 89.376 105.644 91.38 105.644 94.02V105H103.088V94.272C103.088 92.304 102.596 90.804 101.612 89.772C100.628 88.74 99.2243 88.224 97.4003 88.224C95.3603 88.224 93.7403 88.836 92.5403 90.06C91.3643 91.26 90.7763 92.928 90.7763 95.064V105H88.2203V86.064H90.6683V89.556C91.3643 88.404 92.3243 87.516 93.5483 86.892C94.7963 86.244 96.2363 85.92 97.8683 85.92ZM112.584 86.064H115.14V105H112.584V86.064ZM113.88 81.924C113.352 81.924 112.908 81.744 112.548 81.384C112.188 81.024 112.008 80.592 112.008 80.088C112.008 79.608 112.188 79.188 112.548 78.828C112.908 78.468 113.352 78.288 113.88 78.288C114.408 78.288 114.852 78.468 115.212 78.828C115.572 79.164 115.752 79.572 115.752 80.052C115.752 80.58 115.572 81.024 115.212 81.384C114.852 81.744 114.408 81.924 113.88 81.924ZM130.1 105.18C128.228 105.18 126.548 104.772 125.06 103.956C123.596 103.14 122.444 102 121.604 100.536C120.764 99.048 120.344 97.38 120.344 95.532C120.344 93.684 120.764 92.028 121.604 90.564C122.444 89.1 123.596 87.96 125.06 87.144C126.548 86.328 128.228 85.92 130.1 85.92C131.732 85.92 133.184 86.244 134.456 86.892C135.752 87.516 136.772 88.44 137.516 89.664L135.608 90.96C134.984 90.024 134.192 89.328 133.232 88.872C132.272 88.392 131.228 88.152 130.1 88.152C128.732 88.152 127.496 88.464 126.392 89.088C125.312 89.688 124.46 90.552 123.836 91.68C123.236 92.808 122.936 94.092 122.936 95.532C122.936 96.996 123.236 98.292 123.836 99.42C124.46 100.524 125.312 101.388 126.392 102.012C127.496 102.612 128.732 102.912 130.1 102.912C131.228 102.912 132.272 102.684 133.232 102.228C134.192 101.772 134.984 101.076 135.608 100.14L137.516 101.436C136.772 102.66 135.752 103.596 134.456 104.244C133.16 104.868 131.708 105.18 130.1 105.18Z" fill="#474F14"/>
<path d="M169.491 86.064V102.696C169.491 105.912 168.699 108.288 167.115 109.824C165.555 111.384 163.191 112.164 160.023 112.164C158.271 112.164 156.603 111.9 155.019 111.372C153.459 110.868 152.187 110.16 151.203 109.248L152.499 107.304C153.411 108.12 154.515 108.756 155.811 109.212C157.131 109.668 158.511 109.896 159.951 109.896C162.351 109.896 164.115 109.332 165.243 108.204C166.371 107.1 166.935 105.372 166.935 103.02V100.608C166.143 101.808 165.099 102.72 163.803 103.344C162.531 103.968 161.115 104.28 159.555 104.28C157.779 104.28 156.159 103.896 154.695 103.128C153.255 102.336 152.115 101.244 151.275 99.852C150.459 98.436 150.051 96.84 150.051 95.064C150.051 93.288 150.459 91.704 151.275 90.312C152.115 88.92 153.255 87.84 154.695 87.072C156.135 86.304 157.755 85.92 159.555 85.92C161.163 85.92 162.615 86.244 163.911 86.892C165.207 87.54 166.251 88.476 167.043 89.7V86.064H169.491ZM159.807 102.012C161.175 102.012 162.411 101.724 163.515 101.148C164.619 100.548 165.471 99.72 166.071 98.664C166.695 97.608 167.007 96.408 167.007 95.064C167.007 93.72 166.695 92.532 166.071 91.5C165.471 90.444 164.619 89.628 163.515 89.052C162.435 88.452 161.199 88.152 159.807 88.152C158.439 88.152 157.203 88.44 156.099 89.016C155.019 89.592 154.167 90.408 153.543 91.464C152.943 92.52 152.643 93.72 152.643 95.064C152.643 96.408 152.943 97.608 153.543 98.664C154.167 99.72 155.019 100.548 156.099 101.148C157.203 101.724 158.439 102.012 159.807 102.012ZM193.918 86.064V105H191.47V101.256C190.702 102.528 189.682 103.5 188.41 104.172C187.162 104.844 185.746 105.18 184.162 105.18C182.386 105.18 180.778 104.772 179.338 103.956C177.898 103.14 176.77 102 175.954 100.536C175.138 99.072 174.73 97.404 174.73 95.532C174.73 93.66 175.138 91.992 175.954 90.528C176.77 89.064 177.898 87.936 179.338 87.144C180.778 86.328 182.386 85.92 184.162 85.92C185.698 85.92 187.078 86.244 188.302 86.892C189.55 87.516 190.57 88.44 191.362 89.664V86.064H193.918ZM184.378 102.912C185.698 102.912 186.886 102.612 187.942 102.012C189.022 101.388 189.862 100.512 190.462 99.384C191.086 98.256 191.398 96.972 191.398 95.532C191.398 94.092 191.086 92.808 190.462 91.68C189.862 90.552 189.022 89.688 187.942 89.088C186.886 88.464 185.698 88.152 184.378 88.152C183.034 88.152 181.822 88.464 180.742 89.088C179.686 89.688 178.846 90.552 178.222 91.68C177.622 92.808 177.322 94.092 177.322 95.532C177.322 96.972 177.622 98.256 178.222 99.384C178.846 100.512 179.686 101.388 180.742 102.012C181.822 102.612 183.034 102.912 184.378 102.912ZM203.485 89.772C204.085 88.5 204.973 87.54 206.149 86.892C207.349 86.244 208.825 85.92 210.577 85.92V88.404L209.965 88.368C207.973 88.368 206.413 88.98 205.285 90.204C204.157 91.428 203.593 93.144 203.593 95.352V105H201.037V86.064H203.485V89.772ZM232.309 78.288V105H229.861V101.256C229.093 102.528 228.073 103.5 226.801 104.172C225.553 104.844 224.137 105.18 222.553 105.18C220.777 105.18 219.169 104.772 217.729 103.956C216.289 103.14 215.161 102 214.345 100.536C213.529 99.072 213.121 97.404 213.121 95.532C213.121 93.66 213.529 91.992 214.345 90.528C215.161 89.064 216.289 87.936 217.729 87.144C219.169 86.328 220.777 85.92 222.553 85.92C224.089 85.92 225.469 86.244 226.693 86.892C227.941 87.516 228.961 88.44 229.753 89.664V78.288H232.309ZM222.769 102.912C224.089 102.912 225.277 102.612 226.333 102.012C227.413 101.388 228.253 100.512 228.853 99.384C229.477 98.256 229.789 96.972 229.789 95.532C229.789 94.092 229.477 92.808 228.853 91.68C228.253 90.552 227.413 89.688 226.333 89.088C225.277 88.464 224.089 88.152 222.769 88.152C221.425 88.152 220.213 88.464 219.133 89.088C218.077 89.688 217.237 90.552 216.613 91.68C216.013 92.808 215.713 94.092 215.713 95.532C215.713 96.972 216.013 98.256 216.613 99.384C217.237 100.512 218.077 101.388 219.133 102.012C220.213 102.612 221.425 102.912 222.769 102.912ZM247.527 102.912C248.703 102.912 249.783 102.708 250.767 102.3C251.775 101.868 252.627 101.244 253.323 100.428L254.763 102.084C253.923 103.092 252.879 103.86 251.631 104.388C250.383 104.916 249.003 105.18 247.491 105.18C245.547 105.18 243.819 104.772 242.307 103.956C240.795 103.116 239.619 101.964 238.779 100.5C237.939 99.036 237.519 97.38 237.519 95.532C237.519 93.684 237.915 92.028 238.707 90.564C239.523 89.1 240.639 87.96 242.055 87.144C243.471 86.328 245.079 85.92 246.879 85.92C248.559 85.92 250.071 86.304 251.415 87.072C252.783 87.84 253.863 88.908 254.655 90.276C255.471 91.644 255.903 93.204 255.951 94.956L240.399 97.98C240.879 99.516 241.743 100.728 242.991 101.616C244.263 102.48 245.775 102.912 247.527 102.912ZM246.879 88.116C245.559 88.116 244.371 88.428 243.315 89.052C242.283 89.652 241.467 90.504 240.867 91.608C240.291 92.688 240.003 93.936 240.003 95.352C240.003 95.712 240.015 95.976 240.039 96.144L253.395 93.552C253.107 91.968 252.375 90.672 251.199 89.664C250.023 88.632 248.583 88.116 246.879 88.116ZM270.802 85.92C273.178 85.92 275.062 86.616 276.454 88.008C277.87 89.376 278.578 91.38 278.578 94.02V105H276.022V94.272C276.022 92.304 275.53 90.804 274.546 89.772C273.562 88.74 272.158 88.224 270.334 88.224C268.294 88.224 266.674 88.836 265.474 90.06C264.298 91.26 263.71 92.928 263.71 95.064V105H261.154V86.064H263.602V89.556C264.298 88.404 265.258 87.516 266.482 86.892C267.73 86.244 269.17 85.92 270.802 85.92Z" fill="#8D7765"/>
</svg>
