<svg width="301" height="150" viewBox="0 0 301 150" fill="none" xmlns="http://www.w3.org/2000/svg">
<path d="M13.32 122.92C15.096 122.92 16.704 123.328 18.144 124.144C19.584 124.936 20.712 126.064 21.528 127.528C22.344 128.992 22.752 130.66 22.752 132.532C22.752 134.404 22.344 136.072 21.528 137.536C20.712 139 19.584 140.14 18.144 140.956C16.704 141.772 15.096 142.18 13.32 142.18C11.736 142.18 10.308 141.844 9.036 141.172C7.788 140.5 6.78 139.528 6.012 138.256V142H3.564V115.288H6.12V126.664C6.912 125.44 7.92 124.516 9.144 123.892C10.392 123.244 11.784 122.92 13.32 122.92ZM13.14 139.912C14.46 139.912 15.66 139.612 16.74 139.012C17.82 138.388 18.66 137.512 19.26 136.384C19.884 135.256 20.196 133.972 20.196 132.532C20.196 131.092 19.884 129.808 19.26 128.68C18.66 127.552 17.82 126.688 16.74 126.088C15.66 125.464 14.46 125.152 13.14 125.152C11.796 125.152 10.584 125.464 9.504 126.088C8.448 126.688 7.608 127.552 6.984 128.68C6.384 129.808 6.084 131.092 6.084 132.532C6.084 133.972 6.384 135.256 6.984 136.384C7.608 137.512 8.448 138.388 9.504 139.012C10.584 139.612 11.796 139.912 13.14 139.912ZM35.7024 142.18C33.8784 142.18 32.2344 141.772 30.7704 140.956C29.3064 140.116 28.1544 138.964 27.3144 137.5C26.4744 136.036 26.0544 134.38 26.0544 132.532C26.0544 130.684 26.4744 129.028 27.3144 127.564C28.1544 126.1 29.3064 124.96 30.7704 124.144C32.2344 123.328 33.8784 122.92 35.7024 122.92C37.5264 122.92 39.1704 123.328 40.6344 124.144C42.0984 124.96 43.2384 126.1 44.0544 127.564C44.8944 129.028 45.3144 130.684 45.3144 132.532C45.3144 134.38 44.8944 136.036 44.0544 137.5C43.2384 138.964 42.0984 140.116 40.6344 140.956C39.1704 141.772 37.5264 142.18 35.7024 142.18ZM35.7024 139.912C37.0464 139.912 38.2464 139.612 39.3024 139.012C40.3824 138.388 41.2224 137.512 41.8224 136.384C42.4224 135.256 42.7224 133.972 42.7224 132.532C42.7224 131.092 42.4224 129.808 41.8224 128.68C41.2224 127.552 40.3824 126.688 39.3024 126.088C38.2464 125.464 37.0464 125.152 35.7024 125.152C34.3584 125.152 33.1464 125.464 32.0664 126.088C31.0104 126.688 30.1704 127.552 29.5464 128.68C28.9464 129.808 28.6464 131.092 28.6464 132.532C28.6464 133.972 28.9464 135.256 29.5464 136.384C30.1704 137.512 31.0104 138.388 32.0664 139.012C33.1464 139.612 34.3584 139.912 35.7024 139.912ZM59.8568 140.848C59.3768 141.28 58.7888 141.616 58.0928 141.856C57.3968 142.072 56.6648 142.18 55.8968 142.18C54.1208 142.18 52.7528 141.7 51.7928 140.74C50.8328 139.78 50.3528 138.424 50.3528 136.672V118.924H52.9088V123.064H58.6328V125.224H52.9088V136.528C52.9088 137.656 53.1848 138.52 53.7368 139.12C54.2888 139.696 55.0928 139.984 56.1488 139.984C57.3008 139.984 58.2368 139.66 58.9568 139.012L59.8568 140.848ZM81.1018 123.064V142H78.6538V138.256C77.8858 139.528 76.8658 140.5 75.5938 141.172C74.3458 141.844 72.9298 142.18 71.3458 142.18C69.5698 142.18 67.9618 141.772 66.5218 140.956C65.0818 140.14 63.9538 139 63.1378 137.536C62.3218 136.072 61.9138 134.404 61.9138 132.532C61.9138 130.66 62.3218 128.992 63.1378 127.528C63.9538 126.064 65.0818 124.936 66.5218 124.144C67.9618 123.328 69.5698 122.92 71.3458 122.92C72.8818 122.92 74.2618 123.244 75.4858 123.892C76.7338 124.516 77.7538 125.44 78.5458 126.664V123.064H81.1018ZM71.5618 139.912C72.8818 139.912 74.0698 139.612 75.1258 139.012C76.2058 138.388 77.0458 137.512 77.6458 136.384C78.2698 135.256 78.5818 133.972 78.5818 132.532C78.5818 131.092 78.2698 129.808 77.6458 128.68C77.0458 127.552 76.2058 126.688 75.1258 126.088C74.0698 125.464 72.8818 125.152 71.5618 125.152C70.2178 125.152 69.0058 125.464 67.9258 126.088C66.8698 126.688 66.0298 127.552 65.4058 128.68C64.8058 129.808 64.5058 131.092 64.5058 132.532C64.5058 133.972 64.8058 135.256 65.4058 136.384C66.0298 137.512 66.8698 138.388 67.9258 139.012C69.0058 139.612 70.2178 139.912 71.5618 139.912ZM97.8683 122.92C100.244 122.92 102.128 123.616 103.52 125.008C104.936 126.376 105.644 128.38 105.644 131.02V142H103.088V131.272C103.088 129.304 102.596 127.804 101.612 126.772C100.628 125.74 99.2243 125.224 97.4003 125.224C95.3603 125.224 93.7403 125.836 92.5403 127.06C91.3643 128.26 90.7763 129.928 90.7763 132.064V142H88.2203V123.064H90.6683V126.556C91.3643 125.404 92.3243 124.516 93.5483 123.892C94.7963 123.244 96.2363 122.92 97.8683 122.92ZM112.584 123.064H115.14V142H112.584V123.064ZM113.88 118.924C113.352 118.924 112.908 118.744 112.548 118.384C112.188 118.024 112.008 117.592 112.008 117.088C112.008 116.608 112.188 116.188 112.548 115.828C112.908 115.468 113.352 115.288 113.88 115.288C114.408 115.288 114.852 115.468 115.212 115.828C115.572 116.164 115.752 116.572 115.752 117.052C115.752 117.58 115.572 118.024 115.212 118.384C114.852 118.744 114.408 118.924 113.88 118.924ZM130.1 142.18C128.228 142.18 126.548 141.772 125.06 140.956C123.596 140.14 122.444 139 121.604 137.536C120.764 136.048 120.344 134.38 120.344 132.532C120.344 130.684 120.764 129.028 121.604 127.564C122.444 126.1 123.596 124.96 125.06 124.144C126.548 123.328 128.228 122.92 130.1 122.92C131.732 122.92 133.184 123.244 134.456 123.892C135.752 124.516 136.772 125.44 137.516 126.664L135.608 127.96C134.984 127.024 134.192 126.328 133.232 125.872C132.272 125.392 131.228 125.152 130.1 125.152C128.732 125.152 127.496 125.464 126.392 126.088C125.312 126.688 124.46 127.552 123.836 128.68C123.236 129.808 122.936 131.092 122.936 132.532C122.936 133.996 123.236 135.292 123.836 136.42C124.46 137.524 125.312 138.388 126.392 139.012C127.496 139.612 128.732 139.912 130.1 139.912C131.228 139.912 132.272 139.684 133.232 139.228C134.192 138.772 134.984 138.076 135.608 137.14L137.516 138.436C136.772 139.66 135.752 140.596 134.456 141.244C133.16 141.868 131.708 142.18 130.1 142.18Z" fill="#474F14"/>
<path d="M169.491 123.064V139.696C169.491 142.912 168.699 145.288 167.115 146.824C165.555 148.384 163.191 149.164 160.023 149.164C158.271 149.164 156.603 148.9 155.019 148.372C153.459 147.868 152.187 147.16 151.203 146.248L152.499 144.304C153.411 145.12 154.515 145.756 155.811 146.212C157.131 146.668 158.511 146.896 159.951 146.896C162.351 146.896 164.115 146.332 165.243 145.204C166.371 144.1 166.935 142.372 166.935 140.02V137.608C166.143 138.808 165.099 139.72 163.803 140.344C162.531 140.968 161.115 141.28 159.555 141.28C157.779 141.28 156.159 140.896 154.695 140.128C153.255 139.336 152.115 138.244 151.275 136.852C150.459 135.436 150.051 133.84 150.051 132.064C150.051 130.288 150.459 128.704 151.275 127.312C152.115 125.92 153.255 124.84 154.695 124.072C156.135 123.304 157.755 122.92 159.555 122.92C161.163 122.92 162.615 123.244 163.911 123.892C165.207 124.54 166.251 125.476 167.043 126.7V123.064H169.491ZM159.807 139.012C161.175 139.012 162.411 138.724 163.515 138.148C164.619 137.548 165.471 136.72 166.071 135.664C166.695 134.608 167.007 133.408 167.007 132.064C167.007 130.72 166.695 129.532 166.071 128.5C165.471 127.444 164.619 126.628 163.515 126.052C162.435 125.452 161.199 125.152 159.807 125.152C158.439 125.152 157.203 125.44 156.099 126.016C155.019 126.592 154.167 127.408 153.543 128.464C152.943 129.52 152.643 130.72 152.643 132.064C152.643 133.408 152.943 134.608 153.543 135.664C154.167 136.72 155.019 137.548 156.099 138.148C157.203 138.724 158.439 139.012 159.807 139.012ZM193.918 123.064V142H191.47V138.256C190.702 139.528 189.682 140.5 188.41 141.172C187.162 141.844 185.746 142.18 184.162 142.18C182.386 142.18 180.778 141.772 179.338 140.956C177.898 140.14 176.77 139 175.954 137.536C175.138 136.072 174.73 134.404 174.73 132.532C174.73 130.66 175.138 128.992 175.954 127.528C176.77 126.064 177.898 124.936 179.338 124.144C180.778 123.328 182.386 122.92 184.162 122.92C185.698 122.92 187.078 123.244 188.302 123.892C189.55 124.516 190.57 125.44 191.362 126.664V123.064H193.918ZM184.378 139.912C185.698 139.912 186.886 139.612 187.942 139.012C189.022 138.388 189.862 137.512 190.462 136.384C191.086 135.256 191.398 133.972 191.398 132.532C191.398 131.092 191.086 129.808 190.462 128.68C189.862 127.552 189.022 126.688 187.942 126.088C186.886 125.464 185.698 125.152 184.378 125.152C183.034 125.152 181.822 125.464 180.742 126.088C179.686 126.688 178.846 127.552 178.222 128.68C177.622 129.808 177.322 131.092 177.322 132.532C177.322 133.972 177.622 135.256 178.222 136.384C178.846 137.512 179.686 138.388 180.742 139.012C181.822 139.612 183.034 139.912 184.378 139.912ZM203.485 126.772C204.085 125.5 204.973 124.54 206.149 123.892C207.349 123.244 208.825 122.92 210.577 122.92V125.404L209.965 125.368C207.973 125.368 206.413 125.98 205.285 127.204C204.157 128.428 203.593 130.144 203.593 132.352V142H201.037V123.064H203.485V126.772ZM232.309 115.288V142H229.861V138.256C229.093 139.528 228.073 140.5 226.801 141.172C225.553 141.844 224.137 142.18 222.553 142.18C220.777 142.18 219.169 141.772 217.729 140.956C216.289 140.14 215.161 139 214.345 137.536C213.529 136.072 213.121 134.404 213.121 132.532C213.121 130.66 213.529 128.992 214.345 127.528C215.161 126.064 216.289 124.936 217.729 124.144C219.169 123.328 220.777 122.92 222.553 122.92C224.089 122.92 225.469 123.244 226.693 123.892C227.941 124.516 228.961 125.44 229.753 126.664V115.288H232.309ZM222.769 139.912C224.089 139.912 225.277 139.612 226.333 139.012C227.413 138.388 228.253 137.512 228.853 136.384C229.477 135.256 229.789 133.972 229.789 132.532C229.789 131.092 229.477 129.808 228.853 128.68C228.253 127.552 227.413 126.688 226.333 126.088C225.277 125.464 224.089 125.152 222.769 125.152C221.425 125.152 220.213 125.464 219.133 126.088C218.077 126.688 217.237 127.552 216.613 128.68C216.013 129.808 215.713 131.092 215.713 132.532C215.713 133.972 216.013 135.256 216.613 136.384C217.237 137.512 218.077 138.388 219.133 139.012C220.213 139.612 221.425 139.912 222.769 139.912ZM247.527 139.912C248.703 139.912 249.783 139.708 250.767 139.3C251.775 138.868 252.627 138.244 253.323 137.428L254.763 139.084C253.923 140.092 252.879 140.86 251.631 141.388C250.383 141.916 249.003 142.18 247.491 142.18C245.547 142.18 243.819 141.772 242.307 140.956C240.795 140.116 239.619 138.964 238.779 137.5C237.939 136.036 237.519 134.38 237.519 132.532C237.519 130.684 237.915 129.028 238.707 127.564C239.523 126.1 240.639 124.96 242.055 124.144C243.471 123.328 245.079 122.92 246.879 122.92C248.559 122.92 250.071 123.304 251.415 124.072C252.783 124.84 253.863 125.908 254.655 127.276C255.471 128.644 255.903 130.204 255.951 131.956L240.399 134.98C240.879 136.516 241.743 137.728 242.991 138.616C244.263 139.48 245.775 139.912 247.527 139.912ZM246.879 125.116C245.559 125.116 244.371 125.428 243.315 126.052C242.283 126.652 241.467 127.504 240.867 128.608C240.291 129.688 240.003 130.936 240.003 132.352C240.003 132.712 240.015 132.976 240.039 133.144L253.395 130.552C253.107 128.968 252.375 127.672 251.199 126.664C250.023 125.632 248.583 125.116 246.879 125.116ZM270.802 122.92C273.178 122.92 275.062 123.616 276.454 125.008C277.87 126.376 278.578 128.38 278.578 131.02V142H276.022V131.272C276.022 129.304 275.53 127.804 274.546 126.772C273.562 125.74 272.158 125.224 270.334 125.224C268.294 125.224 266.674 125.836 265.474 127.06C264.298 128.26 263.71 129.928 263.71 132.064V142H261.154V123.064H263.602V126.556C264.298 125.404 265.258 124.516 266.482 123.892C267.73 123.244 269.17 122.92 270.802 122.92Z" fill="#8D7765"/>
<path d="M196.479 19.7297C188.251 15.3411 145.044 105.851 135.126 102.595C125.208 99.3379 117.364 26.8873 205.569 1C210.734 89.7433 168.194 90.5908 148.76 106C148.76 106 204.708 24.1184 196.479 19.7297Z" fill="#474F14"/>
<path d="M127.172 53.7838C122.384 73.686 122.828 83.2816 127.172 98.6217C127.172 98.6217 112.402 72.5135 106.153 70.8108C99.9042 69.1081 120.923 106 120.923 106C99.0781 87.8577 91.2836 73.6345 98.768 28.8108C113.064 34.7957 119.664 39.8158 127.172 53.7838Z" fill="#474F14"/>
<path d="M196.479 19.7297C188.251 15.3411 145.044 105.851 135.126 102.595C125.208 99.3379 117.364 26.8873 205.569 1C210.734 89.7433 168.194 90.5908 148.76 106C148.76 106 204.708 24.1184 196.479 19.7297Z" stroke="#474F14"/>
<path d="M127.172 53.7838C122.384 73.686 122.828 83.2816 127.172 98.6217C127.172 98.6217 112.402 72.5135 106.153 70.8108C99.9042 69.1081 120.923 106 120.923 106C99.0781 87.8577 91.2836 73.6345 98.768 28.8108C113.064 34.7957 119.664 39.8158 127.172 53.7838Z" stroke="#474F14"/>
</svg>
